<svg id="Layer_1" data-name="Layer 1" xmlns="http://www.w3.org/2000/svg" viewBox="0 0 496 496">
    <defs>
        <style>
            .cls-1 {
                font-size: 200px;
                font-family: ArialNarrow-Bold, Arial;
                font-weight: 700;
            }
        </style>
    </defs>
    <path
        d="M504,256c0,137-111,248-248,248A247.1,247.1,0,0,1,89.82,440.09a12,12,0,0,1-.48-17.43L129,383a12,12,0,0,1,16.37-.56A166.74,166.74,0,0,0,256,424c93.82,0,167.24-76,168-166.55C424.79,162,346.91,87.21,254.51,88a166.73,166.73,0,0,0-113.23,45.27L183,175c15.12,15.12,4.41,41-17,41H32A24,24,0,0,1,8,192V57.94C8,36.56,33.85,25.85,49,41L84.69,76.68A247.16,247.16,0,0,1,255.55,8C392.35,7.76,504,119.19,504,256Z"
        transform="translate(-8 -8)" /><text class="cls-1" transform="translate(199.88 335.23) scale(1.16 1)">1</text>
</svg>