<svg id="Layer_1" data-name="Layer 1" xmlns="http://www.w3.org/2000/svg" viewBox="0 0 496 496"><path d="M8,256C8,393,119,504,256,504a247.1,247.1,0,0,0,166.18-63.91,12,12,0,0,0,.48-17.43L383,383a12,12,0,0,0-16.37-.56A166.74,166.74,0,0,1,256,424c-93.82,0-167.24-76-168-166.55C87.21,162,165.09,87.21,257.49,88a166.73,166.73,0,0,1,113.23,45.27L329,175c-15.12,15.12-4.41,41,17,41H480a24,24,0,0,0,24-24V57.94c0-21.38-25.85-32.09-41-17L427.32,76.68A247.2,247.2,0,0,0,256.46,8C119.65,7.76,8,119.19,8,256Z" transform="translate(-8 -8)"/></svg>