<svg version="1.1" id="Layer_1" xmlns="http://www.w3.org/2000/svg" xmlns:xlink="http://www.w3.org/1999/xlink" x="0px"
	y="0px" viewBox="0 0 496 496" style="enable-background:new 0 0 496 496;" xml:space="preserve">
	<style type="text/css">
		.st0 {
			font-family: ArialNarrow-Bold, Arial;
		}

		.st1 {
			font-size: 200px;
			font-weight: 700;
		}
	</style>
	<path d="M496,248c0,137-111,248-248,248c-61.4,0.1-120.7-22.7-166.2-63.9c-4.9-4.4-5.4-12-0.9-16.9c0.1-0.2,0.3-0.3,0.5-0.5L121,375
	c4.5-4.5,11.6-4.7,16.4-0.6C168,401.3,207.3,416.1,248,416c93.8,0,167.2-76,168-166.5C416.8,154,338.9,79.2,246.5,80
	c-42.1,0.3-82.6,16.4-113.2,45.3L175,167c15.1,15.1,4.4,41-17,41H24c-13.3,0-24-10.7-24-24V49.9c0-21.3,25.8-32,41-16.9l35.7,35.7
	C122.7,24.6,183.9,0,247.6,0C384.4-0.2,496,111.2,496,248z" />
	<text transform="matrix(1.16 0 0 1 144.9102 335.23)" class="st0 st1">60</text>
</svg>