<svg id="Layer_1" data-name="Layer 1" xmlns="http://www.w3.org/2000/svg" viewBox="0 0 496 496">
    <defs>
        <style>
            .cls-1 {
                font-size: 200px;
                font-family: ArialNarrow-Bold, Arial;
                font-weight: 700;
            }
        </style>
    </defs>
    <path
        d="M256.45,8A247.16,247.16,0,0,1,427.31,76.68L463,41c15.12-15.12,41-4.41,41,17V192a24,24,0,0,1-24,24H345.94c-21.38,0-32.09-25.85-17-41l41.75-41.75A166.73,166.73,0,0,0,257.49,88C165.09,87.21,87.21,162,88,257.45,88.76,348,162.18,424,256,424a166.74,166.74,0,0,0,110.63-41.56A12,12,0,0,1,383,383l39.66,39.66a12,12,0,0,1-.48,17.43A247.1,247.1,0,0,1,256,504C119,504,8,393,8,256,8,119.19,119.65,7.76,256.45,8Z"
        transform="translate(-8 -8)" /><text class="cls-1" transform="translate(190.38 335.23) scale(1.16 1)">1</text>
</svg>